<?xml version="1.0" encoding="utf-8"?>
<!-- Generator: Adobe Illustrator 17.1.0, SVG Export Plug-In . SVG Version: 6.00 Build 0)  -->
<!DOCTYPE svg PUBLIC "-//W3C//DTD SVG 1.1//EN" "http://www.w3.org/Graphics/SVG/1.1/DTD/svg11.dtd">
<svg version="1.1" id="Layer_1" xmlns="http://www.w3.org/2000/svg" xmlns:xlink="http://www.w3.org/1999/xlink" x="0px" y="0px"
	 viewBox="0 0 100 24" enable-background="new 0 0 100 24" xml:space="preserve">
<g opacity="0.75">
	<polygon fill="#F0F1F2" points="100,0.2 95.8,0.2 87.3,11.1 87.3,12.9 95.8,23.8 100,23.8 90.6,12 	"/>
	<path fill="#F0F1F2" d="M36,10.9c0.8-1.2,1.3-2.6,1.3-4c0-3.3-2.2-6.7-6.5-6.7h-7.4v18.2L4.6,0.2H0l24,23.3
		c0.3,0.3,0.7,0.4,1.1,0.4c0.2,0,0.4,0,0.6-0.1c0.6-0.3,1-0.9,1-1.6v-19h4.2c2.4,0,3.6,1.8,3.6,3.6s-1.2,3.7-3.6,3.7h-3v0.4v2.4H33
		c0,0,3.3-0.2,4.5,2c0.2,0.4,0.3,0.9,0.4,1.6c0.1,3.2-2.3,3.9-2.5,3.9c-0.7,0-4.2,0-4.3,0h-3v3h3c0,0,3.8,0,4.4,0l0,0
		c0.8,0,2.4-0.6,3.6-1.9c0.9-0.9,1.8-2.6,1.7-5.2C40.4,13.5,38.4,11.6,36,10.9z"/>
	<path fill="#F0F1F2" d="M58.8,0.1v20.6h-2.1c-0.5,0-0.8-0.3-1-0.5l-0.2-0.1l-4.1-5.2c3.2-0.6,5.1-3,5.7-5.7c0.1-0.5,0.1-1,0.1-1.5
		c0-0.8-0.1-1.6-0.4-2.4c-0.9-2.8-3.5-4.9-6.6-5.1c-0.1,0-0.2,0-0.4,0h-8.2v23.7H45V3.3h4.5c0.1,0,0.2,0,0.3,0s0.2,0,0.3,0
		c2,0,3.2,1.2,3.8,2.6c0.3,0.6,0.4,1.2,0.4,1.8c0,1.6-0.8,2.9-2,3.7c-0.5,0.4-1.1,0.6-1.7,0.6c-0.2,0-0.4,0-0.6,0
		c-0.1,0-0.5,0-0.5,0h-3.1v1.4l1,1.2l6.9,8.7c0.2,0.2,0.5,0.4,0.9,0.4h5.3c0,0,1.7,0.1,1.9-1.6v-22H58.8z"/>
	<path fill="#F0F1F2" d="M74.8,20.8c0.1,0,0.3,0,0.4,0h-0.9C74.5,20.8,74.7,20.8,74.8,20.8z"/>
	<path fill="#F0F1F2" d="M83,0.1v6v14.7h-7.8c-0.1,0-0.3,0-0.4,0s-0.3,0-0.4,0c-1.1-0.1-2.2-0.4-3.1-0.9c-2.7-1.4-4.5-4.4-4.5-7.9
		c0-4.9,3.6-8.8,8.1-8.8c2,0,3.8,0.8,5.2,2l1.8-2.3c-1.9-1.7-4.4-2.8-7.1-2.8c0,0,0,0-0.1,0c-6.1,0-11.1,5.3-11.1,11.9
		c0,4.1,2,7.8,5,9.9c1.6,1.2,3.5,2,5.5,2c2.6,0,10.6,0,10.6,0l0,0c0,0,1.4,0.1,1.7-1.6V0.1H83z"/>
</g>
</svg>
